<svg width="440" height="30" viewBox="0 0 440 30" fill="none" xmlns="http://www.w3.org/2000/svg">
<g id="Progress bar">
<g clip-path="url(#clip0)">
<path id="Line 2" d="M0.842896 29L439.579 29.5" stroke="#E5E5E5" stroke-width="3" stroke-linecap="square"/>
<path id="Line" d="M0.421509 29.5H219.542" stroke="url(#paint0_linear)" stroke-width="3" stroke-linecap="square"/>
<path id="Step 1 of 2" d="M194.258 5.299C194.216 5.37833 194.155 5.418 194.076 5.418C194.015 5.418 193.936 5.376 193.838 5.292C193.745 5.20333 193.616 5.10767 193.453 5.005C193.29 4.89767 193.084 4.79967 192.837 4.711C192.594 4.62233 192.293 4.578 191.934 4.578C191.575 4.578 191.257 4.62933 190.982 4.732C190.711 4.83467 190.483 4.97467 190.296 5.152C190.114 5.32933 189.974 5.53467 189.876 5.768C189.783 6.00133 189.736 6.24633 189.736 6.503C189.736 6.839 189.806 7.11667 189.946 7.336C190.091 7.55533 190.28 7.742 190.513 7.896C190.746 8.05 191.01 8.18067 191.304 8.288C191.603 8.39067 191.908 8.49333 192.221 8.596C192.534 8.69867 192.837 8.813 193.131 8.939C193.43 9.06033 193.696 9.21433 193.929 9.401C194.162 9.58767 194.349 9.81867 194.489 10.094C194.634 10.3647 194.706 10.703 194.706 11.109C194.706 11.5243 194.634 11.9163 194.489 12.285C194.349 12.649 194.144 12.9663 193.873 13.237C193.602 13.5077 193.271 13.7223 192.879 13.881C192.487 14.035 192.039 14.112 191.535 14.112C190.882 14.112 190.319 13.9977 189.848 13.769C189.377 13.5357 188.964 13.2183 188.609 12.817L188.805 12.509C188.861 12.439 188.926 12.404 189.001 12.404C189.043 12.404 189.097 12.432 189.162 12.488C189.227 12.544 189.307 12.614 189.4 12.698C189.493 12.7773 189.605 12.866 189.736 12.964C189.867 13.0573 190.018 13.146 190.191 13.23C190.364 13.3093 190.562 13.377 190.786 13.433C191.01 13.489 191.264 13.517 191.549 13.517C191.941 13.517 192.291 13.4587 192.599 13.342C192.907 13.2207 193.166 13.0573 193.376 12.852C193.591 12.6467 193.754 12.404 193.866 12.124C193.978 11.8393 194.034 11.536 194.034 11.214C194.034 10.864 193.962 10.577 193.817 10.353C193.677 10.1243 193.49 9.93533 193.257 9.786C193.024 9.632 192.758 9.50367 192.459 9.401C192.165 9.29833 191.862 9.198 191.549 9.1C191.236 9.002 190.931 8.89233 190.632 8.771C190.338 8.64967 190.074 8.49567 189.841 8.309C189.608 8.11767 189.419 7.882 189.274 7.602C189.134 7.31733 189.064 6.96267 189.064 6.538C189.064 6.20667 189.127 5.887 189.253 5.579C189.379 5.271 189.563 5.00033 189.806 4.767C190.049 4.529 190.347 4.34 190.702 4.2C191.061 4.05533 191.47 3.983 191.927 3.983C192.44 3.983 192.9 4.06467 193.306 4.228C193.717 4.39133 194.09 4.641 194.426 4.977L194.258 5.299ZM198.352 14.112C197.881 14.112 197.512 13.9813 197.246 13.72C196.985 13.4587 196.854 13.055 196.854 12.509V7.749H195.853C195.802 7.749 195.76 7.735 195.727 7.707C195.695 7.679 195.678 7.63933 195.678 7.588V7.329L196.868 7.245L197.036 4.753C197.041 4.711 197.057 4.67367 197.085 4.641C197.118 4.60833 197.16 4.592 197.211 4.592H197.526V7.252H199.717V7.749H197.526V12.474C197.526 12.6653 197.55 12.831 197.596 12.971C197.648 13.1063 197.715 13.2183 197.799 13.307C197.888 13.3957 197.991 13.461 198.107 13.503C198.224 13.545 198.35 13.566 198.485 13.566C198.653 13.566 198.798 13.5427 198.919 13.496C199.041 13.4447 199.146 13.391 199.234 13.335C199.323 13.2743 199.395 13.2207 199.451 13.174C199.507 13.1227 199.552 13.097 199.584 13.097C199.622 13.097 199.659 13.1203 199.696 13.167L199.878 13.461C199.701 13.657 199.475 13.8157 199.199 13.937C198.929 14.0537 198.646 14.112 198.352 14.112ZM204.064 6.923C204.456 6.923 204.817 6.99067 205.149 7.126C205.485 7.26133 205.774 7.45967 206.017 7.721C206.264 7.97767 206.455 8.295 206.591 8.673C206.731 9.051 206.801 9.485 206.801 9.975C206.801 10.0777 206.784 10.1477 206.752 10.185C206.724 10.2223 206.677 10.241 206.612 10.241H201.579V10.374C201.579 10.8967 201.639 11.3563 201.761 11.753C201.882 12.1497 202.055 12.4833 202.279 12.754C202.503 13.02 202.773 13.2207 203.091 13.356C203.408 13.4913 203.763 13.559 204.155 13.559C204.505 13.559 204.808 13.5217 205.065 13.447C205.321 13.3677 205.536 13.2813 205.709 13.188C205.886 13.09 206.026 13.0037 206.129 12.929C206.231 12.8497 206.306 12.81 206.353 12.81C206.413 12.81 206.46 12.8333 206.493 12.88L206.675 13.104C206.563 13.244 206.413 13.3747 206.227 13.496C206.045 13.6173 205.839 13.7223 205.611 13.811C205.387 13.895 205.144 13.9627 204.883 14.014C204.626 14.0653 204.367 14.091 204.106 14.091C203.63 14.091 203.196 14.0093 202.804 13.846C202.412 13.678 202.076 13.4353 201.796 13.118C201.516 12.8007 201.299 12.4133 201.145 11.956C200.995 11.494 200.921 10.9667 200.921 10.374C200.921 9.87467 200.991 9.415 201.131 8.995C201.275 8.57033 201.481 8.20633 201.747 7.903C202.017 7.595 202.346 7.35467 202.734 7.182C203.126 7.00933 203.569 6.923 204.064 6.923ZM204.071 7.42C203.711 7.42 203.389 7.476 203.105 7.588C202.82 7.7 202.573 7.861 202.363 8.071C202.157 8.281 201.989 8.533 201.859 8.827C201.733 9.121 201.649 9.45 201.607 9.814H206.199C206.199 9.44067 206.147 9.107 206.045 8.813C205.942 8.51433 205.797 8.26233 205.611 8.057C205.424 7.85167 205.2 7.69533 204.939 7.588C204.677 7.476 204.388 7.42 204.071 7.42ZM208.589 16.464V7.035H208.953C209.014 7.035 209.063 7.049 209.1 7.077C209.137 7.10033 209.158 7.14467 209.163 7.21L209.226 8.288C209.534 7.868 209.893 7.53433 210.304 7.287C210.719 7.03967 211.184 6.916 211.697 6.916C212.556 6.916 213.223 7.21233 213.699 7.805C214.175 8.39767 214.413 9.28667 214.413 10.472C214.413 10.9807 214.345 11.4567 214.21 11.9C214.079 12.3387 213.886 12.7213 213.629 13.048C213.372 13.37 213.055 13.6243 212.677 13.811C212.304 13.9977 211.872 14.091 211.382 14.091C210.906 14.091 210.495 14.0047 210.15 13.832C209.805 13.6593 209.506 13.4027 209.254 13.062V16.464H208.589ZM211.508 7.455C211.046 7.455 210.626 7.57633 210.248 7.819C209.875 8.057 209.543 8.39067 209.254 8.82V12.474C209.52 12.8753 209.814 13.1577 210.136 13.321C210.463 13.4843 210.834 13.566 211.249 13.566C211.66 13.566 212.019 13.4913 212.327 13.342C212.635 13.1927 212.892 12.9827 213.097 12.712C213.307 12.4367 213.463 12.11 213.566 11.732C213.673 11.3493 213.727 10.9293 213.727 10.472C213.727 9.436 213.536 8.67533 213.153 8.19C212.775 7.7 212.227 7.455 211.508 7.455ZM219.817 13.482H222.092V5.446C222.092 5.28733 222.099 5.11933 222.113 4.942L219.929 6.881C219.883 6.923 219.827 6.944 219.761 6.944C219.682 6.944 219.621 6.916 219.579 6.86L219.376 6.58L222.239 4.053H222.757V13.482H224.92V14H219.817V13.482ZM232.269 6.923C232.769 6.923 233.214 7.00933 233.606 7.182C234.003 7.35 234.337 7.59033 234.607 7.903C234.878 8.21567 235.083 8.59367 235.223 9.037C235.368 9.47567 235.44 9.968 235.44 10.514C235.44 11.06 235.368 11.5523 235.223 11.991C235.083 12.4297 234.878 12.8053 234.607 13.118C234.337 13.4307 234.003 13.671 233.606 13.839C233.214 14.007 232.769 14.091 232.269 14.091C231.77 14.091 231.322 14.007 230.925 13.839C230.533 13.671 230.2 13.4307 229.924 13.118C229.654 12.8053 229.446 12.4297 229.301 11.991C229.161 11.5523 229.091 11.06 229.091 10.514C229.091 9.968 229.161 9.47567 229.301 9.037C229.446 8.59367 229.654 8.21567 229.924 7.903C230.2 7.59033 230.533 7.35 230.925 7.182C231.322 7.00933 231.77 6.923 232.269 6.923ZM232.269 13.566C232.685 13.566 233.046 13.496 233.354 13.356C233.667 13.2113 233.926 13.006 234.131 12.74C234.341 12.474 234.498 12.1543 234.6 11.781C234.703 11.403 234.754 10.9807 234.754 10.514C234.754 10.052 234.703 9.632 234.6 9.254C234.498 8.876 234.341 8.554 234.131 8.288C233.926 8.01733 233.667 7.80967 233.354 7.665C233.046 7.52033 232.685 7.448 232.269 7.448C231.854 7.448 231.49 7.52033 231.177 7.665C230.869 7.80967 230.61 8.01733 230.4 8.288C230.195 8.554 230.039 8.876 229.931 9.254C229.829 9.632 229.777 10.052 229.777 10.514C229.777 10.9807 229.829 11.403 229.931 11.781C230.039 12.1543 230.195 12.474 230.4 12.74C230.61 13.006 230.869 13.2113 231.177 13.356C231.49 13.496 231.854 13.566 232.269 13.566ZM237.45 14V7.763L236.47 7.7C236.334 7.69067 236.267 7.63233 236.267 7.525V7.252H237.45V6.37C237.45 5.97333 237.501 5.62567 237.604 5.327C237.706 5.02367 237.851 4.77167 238.038 4.571C238.224 4.37033 238.448 4.221 238.71 4.123C238.976 4.02033 239.267 3.969 239.585 3.969C239.729 3.969 239.874 3.983 240.019 4.011C240.168 4.03433 240.299 4.06933 240.411 4.116L240.39 4.438C240.385 4.50333 240.341 4.536 240.257 4.536C240.201 4.536 240.124 4.529 240.026 4.515C239.932 4.501 239.816 4.494 239.676 4.494C239.447 4.494 239.235 4.529 239.039 4.599C238.847 4.66433 238.682 4.77167 238.542 4.921C238.402 5.07033 238.292 5.26633 238.213 5.509C238.138 5.747 238.101 6.041 238.101 6.391V7.252H240.362V7.749H238.115V14H237.45ZM247.489 3.983C247.867 3.983 248.227 4.039 248.567 4.151C248.913 4.25833 249.216 4.424 249.477 4.648C249.739 4.86733 249.946 5.145 250.1 5.481C250.254 5.81233 250.331 6.202 250.331 6.65C250.331 7.02333 250.273 7.371 250.156 7.693C250.044 8.01033 249.89 8.316 249.694 8.61C249.498 8.904 249.27 9.191 249.008 9.471C248.752 9.74633 248.481 10.0287 248.196 10.318L245.095 13.482C245.245 13.4447 245.399 13.4167 245.557 13.398C245.721 13.3793 245.884 13.37 246.047 13.37H250.324C250.399 13.37 250.457 13.3933 250.499 13.44C250.546 13.482 250.569 13.538 250.569 13.608V14H244.178V13.762C244.178 13.7107 244.19 13.6593 244.213 13.608C244.241 13.552 244.274 13.5053 244.311 13.468L247.692 10.045C247.972 9.76033 248.231 9.485 248.469 9.219C248.707 8.953 248.913 8.68467 249.085 8.414C249.263 8.14333 249.4 7.86567 249.498 7.581C249.601 7.29633 249.652 6.993 249.652 6.671C249.652 6.307 249.592 5.992 249.47 5.726C249.349 5.45533 249.186 5.23367 248.98 5.061C248.78 4.88833 248.546 4.76 248.28 4.676C248.019 4.592 247.744 4.55 247.454 4.55C247.142 4.55 246.852 4.599 246.586 4.697C246.325 4.79033 246.092 4.92333 245.886 5.096C245.686 5.264 245.518 5.467 245.382 5.705C245.252 5.93833 245.161 6.195 245.109 6.475C245.063 6.63833 244.969 6.72 244.829 6.72C244.82 6.72 244.808 6.72 244.794 6.72C244.78 6.71533 244.769 6.713 244.759 6.713L244.423 6.657C244.479 6.23233 244.594 5.85433 244.766 5.523C244.944 5.19167 245.165 4.91167 245.431 4.683C245.697 4.45433 246.005 4.28167 246.355 4.165C246.705 4.04367 247.083 3.983 247.489 3.983Z" fill="#848484"/>
</g>
</g>
<defs>
<linearGradient id="paint0_linear" x1="220" y1="29.0052" x2="2.27036" y2="29.0052" gradientUnits="userSpaceOnUse">
<stop stop-color="#9B2686"/>
<stop offset="1" stop-color="#E51323"/>
</linearGradient>
<clipPath id="clip0">
<rect width="440" height="30" fill="white"/>
</clipPath>
</defs>
</svg>
