<svg width="320" height="30" viewBox="0 0 320 30" fill="none" xmlns="http://www.w3.org/2000/svg">
<g id="Progress bar">
<g clip-path="url(#clip0)">
<path id="Line 2" d="M1.00314 29L319.641 29.5" stroke="#E5E5E5" stroke-width="3" stroke-linecap="square"/>
<path id="Step 1 of 2" d="M132.258 5.299C132.216 5.37833 132.155 5.418 132.076 5.418C132.015 5.418 131.936 5.376 131.838 5.292C131.745 5.20333 131.616 5.10767 131.453 5.005C131.29 4.89767 131.084 4.79967 130.837 4.711C130.594 4.62233 130.293 4.578 129.934 4.578C129.575 4.578 129.257 4.62933 128.982 4.732C128.711 4.83467 128.483 4.97467 128.296 5.152C128.114 5.32933 127.974 5.53467 127.876 5.768C127.783 6.00133 127.736 6.24633 127.736 6.503C127.736 6.839 127.806 7.11667 127.946 7.336C128.091 7.55533 128.28 7.742 128.513 7.896C128.746 8.05 129.01 8.18067 129.304 8.288C129.603 8.39067 129.908 8.49333 130.221 8.596C130.534 8.69867 130.837 8.813 131.131 8.939C131.43 9.06033 131.696 9.21433 131.929 9.401C132.162 9.58767 132.349 9.81867 132.489 10.094C132.634 10.3647 132.706 10.703 132.706 11.109C132.706 11.5243 132.634 11.9163 132.489 12.285C132.349 12.649 132.144 12.9663 131.873 13.237C131.602 13.5077 131.271 13.7223 130.879 13.881C130.487 14.035 130.039 14.112 129.535 14.112C128.882 14.112 128.319 13.9977 127.848 13.769C127.377 13.5357 126.964 13.2183 126.609 12.817L126.805 12.509C126.861 12.439 126.926 12.404 127.001 12.404C127.043 12.404 127.097 12.432 127.162 12.488C127.227 12.544 127.307 12.614 127.4 12.698C127.493 12.7773 127.605 12.866 127.736 12.964C127.867 13.0573 128.018 13.146 128.191 13.23C128.364 13.3093 128.562 13.377 128.786 13.433C129.01 13.489 129.264 13.517 129.549 13.517C129.941 13.517 130.291 13.4587 130.599 13.342C130.907 13.2207 131.166 13.0573 131.376 12.852C131.591 12.6467 131.754 12.404 131.866 12.124C131.978 11.8393 132.034 11.536 132.034 11.214C132.034 10.864 131.962 10.577 131.817 10.353C131.677 10.1243 131.49 9.93533 131.257 9.786C131.024 9.632 130.758 9.50367 130.459 9.401C130.165 9.29833 129.862 9.198 129.549 9.1C129.236 9.002 128.931 8.89233 128.632 8.771C128.338 8.64967 128.074 8.49567 127.841 8.309C127.608 8.11767 127.419 7.882 127.274 7.602C127.134 7.31733 127.064 6.96267 127.064 6.538C127.064 6.20667 127.127 5.887 127.253 5.579C127.379 5.271 127.563 5.00033 127.806 4.767C128.049 4.529 128.347 4.34 128.702 4.2C129.061 4.05533 129.47 3.983 129.927 3.983C130.44 3.983 130.9 4.06467 131.306 4.228C131.717 4.39133 132.09 4.641 132.426 4.977L132.258 5.299ZM136.352 14.112C135.881 14.112 135.512 13.9813 135.246 13.72C134.985 13.4587 134.854 13.055 134.854 12.509V7.749H133.853C133.802 7.749 133.76 7.735 133.727 7.707C133.695 7.679 133.678 7.63933 133.678 7.588V7.329L134.868 7.245L135.036 4.753C135.041 4.711 135.057 4.67367 135.085 4.641C135.118 4.60833 135.16 4.592 135.211 4.592H135.526V7.252H137.717V7.749H135.526V12.474C135.526 12.6653 135.55 12.831 135.596 12.971C135.648 13.1063 135.715 13.2183 135.799 13.307C135.888 13.3957 135.991 13.461 136.107 13.503C136.224 13.545 136.35 13.566 136.485 13.566C136.653 13.566 136.798 13.5427 136.919 13.496C137.041 13.4447 137.146 13.391 137.234 13.335C137.323 13.2743 137.395 13.2207 137.451 13.174C137.507 13.1227 137.552 13.097 137.584 13.097C137.622 13.097 137.659 13.1203 137.696 13.167L137.878 13.461C137.701 13.657 137.475 13.8157 137.199 13.937C136.929 14.0537 136.646 14.112 136.352 14.112ZM142.064 6.923C142.456 6.923 142.817 6.99067 143.149 7.126C143.485 7.26133 143.774 7.45967 144.017 7.721C144.264 7.97767 144.455 8.295 144.591 8.673C144.731 9.051 144.801 9.485 144.801 9.975C144.801 10.0777 144.784 10.1477 144.752 10.185C144.724 10.2223 144.677 10.241 144.612 10.241H139.579V10.374C139.579 10.8967 139.639 11.3563 139.761 11.753C139.882 12.1497 140.055 12.4833 140.279 12.754C140.503 13.02 140.773 13.2207 141.091 13.356C141.408 13.4913 141.763 13.559 142.155 13.559C142.505 13.559 142.808 13.5217 143.065 13.447C143.321 13.3677 143.536 13.2813 143.709 13.188C143.886 13.09 144.026 13.0037 144.129 12.929C144.231 12.8497 144.306 12.81 144.353 12.81C144.413 12.81 144.46 12.8333 144.493 12.88L144.675 13.104C144.563 13.244 144.413 13.3747 144.227 13.496C144.045 13.6173 143.839 13.7223 143.611 13.811C143.387 13.895 143.144 13.9627 142.883 14.014C142.626 14.0653 142.367 14.091 142.106 14.091C141.63 14.091 141.196 14.0093 140.804 13.846C140.412 13.678 140.076 13.4353 139.796 13.118C139.516 12.8007 139.299 12.4133 139.145 11.956C138.995 11.494 138.921 10.9667 138.921 10.374C138.921 9.87467 138.991 9.415 139.131 8.995C139.275 8.57033 139.481 8.20633 139.747 7.903C140.017 7.595 140.346 7.35467 140.734 7.182C141.126 7.00933 141.569 6.923 142.064 6.923ZM142.071 7.42C141.711 7.42 141.389 7.476 141.105 7.588C140.82 7.7 140.573 7.861 140.363 8.071C140.157 8.281 139.989 8.533 139.859 8.827C139.733 9.121 139.649 9.45 139.607 9.814H144.199C144.199 9.44067 144.147 9.107 144.045 8.813C143.942 8.51433 143.797 8.26233 143.611 8.057C143.424 7.85167 143.2 7.69533 142.939 7.588C142.677 7.476 142.388 7.42 142.071 7.42ZM146.589 16.464V7.035H146.953C147.014 7.035 147.063 7.049 147.1 7.077C147.137 7.10033 147.158 7.14467 147.163 7.21L147.226 8.288C147.534 7.868 147.893 7.53433 148.304 7.287C148.719 7.03967 149.184 6.916 149.697 6.916C150.556 6.916 151.223 7.21233 151.699 7.805C152.175 8.39767 152.413 9.28667 152.413 10.472C152.413 10.9807 152.345 11.4567 152.21 11.9C152.079 12.3387 151.886 12.7213 151.629 13.048C151.372 13.37 151.055 13.6243 150.677 13.811C150.304 13.9977 149.872 14.091 149.382 14.091C148.906 14.091 148.495 14.0047 148.15 13.832C147.805 13.6593 147.506 13.4027 147.254 13.062V16.464H146.589ZM149.508 7.455C149.046 7.455 148.626 7.57633 148.248 7.819C147.875 8.057 147.543 8.39067 147.254 8.82V12.474C147.52 12.8753 147.814 13.1577 148.136 13.321C148.463 13.4843 148.834 13.566 149.249 13.566C149.66 13.566 150.019 13.4913 150.327 13.342C150.635 13.1927 150.892 12.9827 151.097 12.712C151.307 12.4367 151.463 12.11 151.566 11.732C151.673 11.3493 151.727 10.9293 151.727 10.472C151.727 9.436 151.536 8.67533 151.153 8.19C150.775 7.7 150.227 7.455 149.508 7.455ZM157.817 13.482H160.092V5.446C160.092 5.28733 160.099 5.11933 160.113 4.942L157.929 6.881C157.883 6.923 157.827 6.944 157.761 6.944C157.682 6.944 157.621 6.916 157.579 6.86L157.376 6.58L160.239 4.053H160.757V13.482H162.92V14H157.817V13.482ZM170.269 6.923C170.769 6.923 171.214 7.00933 171.606 7.182C172.003 7.35 172.337 7.59033 172.607 7.903C172.878 8.21567 173.083 8.59367 173.223 9.037C173.368 9.47567 173.44 9.968 173.44 10.514C173.44 11.06 173.368 11.5523 173.223 11.991C173.083 12.4297 172.878 12.8053 172.607 13.118C172.337 13.4307 172.003 13.671 171.606 13.839C171.214 14.007 170.769 14.091 170.269 14.091C169.77 14.091 169.322 14.007 168.925 13.839C168.533 13.671 168.2 13.4307 167.924 13.118C167.654 12.8053 167.446 12.4297 167.301 11.991C167.161 11.5523 167.091 11.06 167.091 10.514C167.091 9.968 167.161 9.47567 167.301 9.037C167.446 8.59367 167.654 8.21567 167.924 7.903C168.2 7.59033 168.533 7.35 168.925 7.182C169.322 7.00933 169.77 6.923 170.269 6.923ZM170.269 13.566C170.685 13.566 171.046 13.496 171.354 13.356C171.667 13.2113 171.926 13.006 172.131 12.74C172.341 12.474 172.498 12.1543 172.6 11.781C172.703 11.403 172.754 10.9807 172.754 10.514C172.754 10.052 172.703 9.632 172.6 9.254C172.498 8.876 172.341 8.554 172.131 8.288C171.926 8.01733 171.667 7.80967 171.354 7.665C171.046 7.52033 170.685 7.448 170.269 7.448C169.854 7.448 169.49 7.52033 169.177 7.665C168.869 7.80967 168.61 8.01733 168.4 8.288C168.195 8.554 168.039 8.876 167.931 9.254C167.829 9.632 167.777 10.052 167.777 10.514C167.777 10.9807 167.829 11.403 167.931 11.781C168.039 12.1543 168.195 12.474 168.4 12.74C168.61 13.006 168.869 13.2113 169.177 13.356C169.49 13.496 169.854 13.566 170.269 13.566ZM175.45 14V7.763L174.47 7.7C174.334 7.69067 174.267 7.63233 174.267 7.525V7.252H175.45V6.37C175.45 5.97333 175.501 5.62567 175.604 5.327C175.706 5.02367 175.851 4.77167 176.038 4.571C176.224 4.37033 176.448 4.221 176.71 4.123C176.976 4.02033 177.267 3.969 177.585 3.969C177.729 3.969 177.874 3.983 178.019 4.011C178.168 4.03433 178.299 4.06933 178.411 4.116L178.39 4.438C178.385 4.50333 178.341 4.536 178.257 4.536C178.201 4.536 178.124 4.529 178.026 4.515C177.932 4.501 177.816 4.494 177.676 4.494C177.447 4.494 177.235 4.529 177.039 4.599C176.847 4.66433 176.682 4.77167 176.542 4.921C176.402 5.07033 176.292 5.26633 176.213 5.509C176.138 5.747 176.101 6.041 176.101 6.391V7.252H178.362V7.749H176.115V14H175.45ZM185.489 3.983C185.867 3.983 186.227 4.039 186.567 4.151C186.913 4.25833 187.216 4.424 187.477 4.648C187.739 4.86733 187.946 5.145 188.1 5.481C188.254 5.81233 188.331 6.202 188.331 6.65C188.331 7.02333 188.273 7.371 188.156 7.693C188.044 8.01033 187.89 8.316 187.694 8.61C187.498 8.904 187.27 9.191 187.008 9.471C186.752 9.74633 186.481 10.0287 186.196 10.318L183.095 13.482C183.245 13.4447 183.399 13.4167 183.557 13.398C183.721 13.3793 183.884 13.37 184.047 13.37H188.324C188.399 13.37 188.457 13.3933 188.499 13.44C188.546 13.482 188.569 13.538 188.569 13.608V14H182.178V13.762C182.178 13.7107 182.19 13.6593 182.213 13.608C182.241 13.552 182.274 13.5053 182.311 13.468L185.692 10.045C185.972 9.76033 186.231 9.485 186.469 9.219C186.707 8.953 186.913 8.68467 187.085 8.414C187.263 8.14333 187.4 7.86567 187.498 7.581C187.601 7.29633 187.652 6.993 187.652 6.671C187.652 6.307 187.592 5.992 187.47 5.726C187.349 5.45533 187.186 5.23367 186.98 5.061C186.78 4.88833 186.546 4.76 186.28 4.676C186.019 4.592 185.744 4.55 185.454 4.55C185.142 4.55 184.852 4.599 184.586 4.697C184.325 4.79033 184.092 4.92333 183.886 5.096C183.686 5.264 183.518 5.467 183.382 5.705C183.252 5.93833 183.161 6.195 183.109 6.475C183.063 6.63833 182.969 6.72 182.829 6.72C182.82 6.72 182.808 6.72 182.794 6.72C182.78 6.71533 182.769 6.713 182.759 6.713L182.423 6.657C182.479 6.23233 182.594 5.85433 182.766 5.523C182.944 5.19167 183.165 4.91167 183.431 4.683C183.697 4.45433 184.005 4.28167 184.355 4.165C184.705 4.04367 185.083 3.983 185.489 3.983Z" fill="#848484"/>
<path id="Line" d="M0.441748 29.5H162.987" stroke="url(#paint0_linear)" stroke-width="3" stroke-linecap="square"/>
</g>
</g>
<defs>
<linearGradient id="paint0_linear" x1="163.511" y1="29.0052" x2="1.68741" y2="29.0052" gradientUnits="userSpaceOnUse">
<stop stop-color="#9B2686"/>
<stop offset="1" stop-color="#E51323"/>
</linearGradient>
<clipPath id="clip0">
<rect width="320" height="30" fill="white"/>
</clipPath>
</defs>
</svg>
